<svg width="563" height="137" fill="none" xmlns="http://www.w3.org/2000/svg">
    <path d="M366.72 110.826V69.183h7.386v35.403h17.319v6.24H366.72Zm38.902.764c-1.826 0-3.439-.382-4.84-1.146a8.532 8.532 0 0 1-3.311-3.184c-.764-1.401-1.146-3.014-1.146-4.839 0-3.523 1.465-6.177 4.394-7.96 2.971-1.825 7.662-3.077 14.072-3.756-.043-1.061-.255-2.038-.637-2.93-.34-.89-.934-1.591-1.783-2.1-.806-.552-1.91-.828-3.311-.828-1.528 0-3.035.276-4.521.828a26.48 26.48 0 0 0-4.266 2.1l-2.674-4.966a28.425 28.425 0 0 1 3.756-1.974 20.814 20.814 0 0 1 4.33-1.464 19.626 19.626 0 0 1 4.776-.573c2.589 0 4.733.53 6.431 1.592 1.74 1.018 3.035 2.547 3.884 4.584.892 1.995 1.337 4.457 1.337 7.386v18.466h-6.049l-.509-3.438h-.255a25.24 25.24 0 0 1-4.521 2.992c-1.57.807-3.29 1.21-5.157 1.21Zm2.292-5.985c1.273 0 2.441-.255 3.502-.764 1.104-.552 2.229-1.359 3.375-2.42v-6.622c-2.844.34-5.094.785-6.75 1.337-1.655.552-2.844 1.231-3.565 2.038-.68.764-1.019 1.676-1.019 2.738 0 1.316.424 2.271 1.273 2.865.849.552 1.91.828 3.184.828Zm22.963 5.221V79.562h6.049l.509 5.54h.255c1.103-2.038 2.419-3.588 3.948-4.649 1.57-1.103 3.204-1.655 4.902-1.655.807 0 1.486.042 2.038.127a4.635 4.635 0 0 1 1.528.51l-1.464 6.24a9.89 9.89 0 0 0-1.401-.255c-.425-.085-.976-.127-1.656-.127-1.231 0-2.525.488-3.884 1.464-1.358.934-2.526 2.59-3.502 4.967v19.102h-7.322Zm29.714.764c-1.826 0-3.439-.382-4.84-1.146a8.532 8.532 0 0 1-3.311-3.184c-.764-1.401-1.146-3.014-1.146-4.839 0-3.523 1.465-6.177 4.394-7.96 2.971-1.825 7.662-3.077 14.072-3.756-.043-1.061-.255-2.038-.637-2.93-.34-.89-.934-1.591-1.783-2.1-.806-.552-1.91-.828-3.311-.828-1.528 0-3.035.276-4.521.828a26.48 26.48 0 0 0-4.266 2.1l-2.674-4.966a28.425 28.425 0 0 1 3.756-1.974 20.814 20.814 0 0 1 4.33-1.464 19.626 19.626 0 0 1 4.776-.573c2.589 0 4.733.53 6.431 1.592 1.74 1.018 3.035 2.547 3.884 4.584.892 1.995 1.337 4.457 1.337 7.386v18.466h-6.049l-.509-3.438h-.255a25.24 25.24 0 0 1-4.521 2.992c-1.57.807-3.29 1.21-5.157 1.21Zm2.292-5.985c1.273 0 2.441-.255 3.502-.764 1.104-.552 2.229-1.359 3.375-2.42v-6.622c-2.844.34-5.094.785-6.75 1.337-1.655.552-2.844 1.231-3.565 2.038-.68.764-1.019 1.676-1.019 2.738 0 1.316.424 2.271 1.273 2.865.849.552 1.91.828 3.184.828Zm29.967 5.221-10.889-31.264h7.45l4.967 16.237a230.35 230.35 0 0 1 1.273 4.648c.467 1.571.913 3.163 1.338 4.776h.254c.467-1.613.913-3.205 1.337-4.776.467-1.613.913-3.162 1.338-4.648l4.966-16.237h7.068l-10.634 31.264h-8.468Zm37.584.764c-2.929 0-5.582-.637-7.959-1.91-2.335-1.316-4.182-3.184-5.54-5.604-1.358-2.462-2.037-5.433-2.037-8.914 0-3.396.7-6.304 2.101-8.723 1.401-2.462 3.205-4.351 5.412-5.667 2.207-1.316 4.542-1.974 7.004-1.974 2.844 0 5.222.636 7.132 1.91 1.91 1.273 3.332 3.035 4.266 5.285.976 2.207 1.465 4.754 1.465 7.64 0 .68-.043 1.338-.128 1.975a12.745 12.745 0 0 1-.255 1.846h-21.521v-5.603h15.409c0-2.25-.51-4.011-1.528-5.285-1.019-1.316-2.59-1.974-4.712-1.974-1.189 0-2.356.319-3.502.955-1.104.637-2.038 1.72-2.802 3.248-.722 1.528-1.083 3.65-1.083 6.367 0 2.462.425 4.478 1.274 6.049.849 1.528 1.974 2.674 3.375 3.439a9.732 9.732 0 0 0 4.521 1.082c1.358 0 2.631-.191 3.82-.573a14.097 14.097 0 0 0 3.438-1.592l2.547 4.712c-1.443 1.019-3.098 1.825-4.966 2.42a18.407 18.407 0 0 1-5.731.891Zm25.969-.127c-1.741 0-3.141-.34-4.203-1.019-1.018-.722-1.761-1.74-2.228-3.056-.467-1.316-.701-2.887-.701-4.712V65.872h7.323v37.186c0 .934.17 1.57.509 1.91.34.34.722.509 1.146.509h.446c.17-.042.382-.085.637-.127l.955 5.476c-.425.17-.976.318-1.656.446-.636.127-1.379.191-2.228.191ZM355.199.336v21.871h-29v88.619h-22.033V22.207h-28.999V.337h80.032ZM264.608.336l-29.809 55.245 29.809 55.245h-25.111l-17.173-32.078-17.173 32.078h-24.949l29.647-55.245L180.202.336h24.949l17.173 31.916L239.497.336h25.111Z" fill="#18B69B"/>
    <path d="M97.337.174h72.256v22.033H97.337V.174Zm0 39.044h72.256v22.033H119.37v27.542h50.223v22.033H97.337V39.218Z" fill="#F72C1F"/>
    <path d="M63.201.336h22.033v110.49L22.861 51.693v59.133H.828V.336l62.373 59.295V.336Z" fill="#18B69B"/>
</svg>
